#!OML:ASF F:\VICON\USERDATA\INSTALL\rory3\rory3.ASF
:FULLY-SPECIFIED
:DEGREES
538
root 2.5212 28.9858 -0.0174303 -167.562 -17.123 173.963
lowerback 16.4858 -1.25136 -0.829212
upperback 2.76215 -1.98319 3.39041
thorax -6.13355 -1.0971 4.53354
lowerneck -20.427 1.4578 -11.2381
upperneck 37.206 3.95593 -0.412391
head 16.7495 -1.00124 2.26897
rclavicle 6.83819e-014 -3.49861e-014
rhumerus 7.71624 19.3963 -84.3151
rradius 88.1439
rwrist 52.4433
rhand -12.5169 -2.54795
rfingers 7.12502
rthumb 13.5588 -32.0865
lclavicle 6.83819e-014 -3.49861e-014
lhumerus 51.0872 -9.46401 64.9744
lradius 72.1016
lwrist -21.8567
lhand -21.6528 29.2701
lfingers 7.12502
lthumb 4.74406 59.197
rfemur -19.5497 -13.3014 26.7837
rtibia 2.19933
rfoot 2.78073 -17.9083
rtoes 22.4356
lfemur -78.6569 5.24233 -31.6763
ltibia 103.547
lfoot -20.9815 -18.7349
ltoes -19.3907
539
root 2.51368 28.9862 -0.015994 -167.599 -17.0116 173.964
lowerback 16.6234 -1.2415 -0.861195
upperback 2.77322 -1.97858 3.42895
thorax -6.19456 -1.09539 4.59907
lowerneck -20.3822 1.50094 -11.3276
upperneck 37.3135 4.05203 -0.512914
head 16.7927 -1.00949 2.25378
rclavicle 9.54166e-015 2.54444e-014
rhumerus 7.84148 19.5504 -84.2066
rradius 88.1426
rwrist 52.4636
rhand -12.4478 -2.56289
rfingers 7.12502
rthumb 13.6254 -32.097
lclavicle 9.54166e-015 2.54444e-014
lhumerus 51.3049 -9.39009 65.0083
lradius 71.4753
lwrist -21.8119
lhand -20.7914 29.6778
lfingers 7.12502
lthumb 5.57578 59.5845
rfemur -19.1196 -13.3286 26.7892
rtibia 1.32047
rfoot 3.29514 -17.9973
rtoes 22.0455
lfemur -78.7267 4.89499 -31.7103
ltibia 103.022
lfoot -21.0243 -18.5271
ltoes -19.8261
540
root 2.506 28.9836 -0.0162793 -167.603 -16.8354 173.894
lowerback 16.6668 -1.23704 -0.870354
upperback 2.82599 -1.98391 3.32553
thorax -6.16473 -1.10063 4.49409
lowerneck -20.3952 1.54589 -11.2924
upperneck 37.3991 4.09803 -0.526969
head 16.8384 -0.999008 2.24954
rclavicle -3.4191e-014 -4.77083e-015
rhumerus 7.99593 19.6489 -84.2449
rradius 88.1404
rwrist 52.445
rhand -12.3897 -2.58371
rfingers 7.12502
rthumb 13.6815 -32.114
lclavicle -3.4191e-014 -4.77083e-015
lhumerus 51.5367 -9.37106 64.8507
lradius 70.9358
lwrist -21.9274
lhand -19.3795 29.8337
lfingers 7.12502
lthumb 6.93886 59.7
rfemur -19.1206 -13.3052 26.7199
rtibia 1.32254
rfoot 3.19094 -17.8252
rtoes 20.9578
lfemur -78.737 4.56583 -31.8062
ltibia 102.45
lfoot -21.3638 -18.4476
ltoes -20.3405
541
root 2.49817 28.98 -0.0175332 -167.455 -16.6285 173.79
lowerback 16.4958 -1.23459 -0.905991
upperback 2.88914 -1.99525 3.19444
thorax -6.00687 -1.10909 4.36481
lowerneck -20.5685 1.59352 -11.3224
upperneck 37.6007 4.14108 -0.370827
head 16.9752 -0.982576 2.33572
rclavicle -3.65764e-014 -2.8625e-014
rhumerus 8.16746 19.7245 -84.3207
rradius 88.1602
rwrist 52.4348
rhand -12.5095 -2.6453
rfingers 7.12502
rthumb 13.566 -32.1833
lclavicle -3.65764e-014 -2.8625e-014
lhumerus 51.7703 -9.43012 64.9551
lradius 70.4901
lwrist -21.9611
lhand -14.0249 27.2741
lfingers 7.12502
lthumb 12.1051 56.9039
rfemur -19.6036 -13.2461 26.6379
rtibia 2.00185
rfoot 2.64089 -17.5873
rtoes 20.6611
lfemur -78.8677 4.22651 -31.9721
ltibia 101.791
lfoot -21.7567 -18.5817
ltoes -20.5683
542
root 2.4897 28.9783 -0.0158834 -167.387 -16.5005 173.816
lowerback 16.4409 -1.26292 -0.842336
upperback 2.94165 -2.02972 3.14934
thorax -5.92198 -1.13118 4.28265
lowerneck -20.4509 1.65844 -11.176
upperneck 37.4612 4.24521 -0.579612
head 16.8778 -0.937412 2.23491
rclavicle -2.78299e-014 -3.18055e-015
rhumerus 8.31237 19.8306 -84.4052
rradius 88.176
rwrist 52.5953
rhand -12.5608 -2.56428
rfingers 7.12502
rthumb 13.5165 -32.1056
lclavicle -2.78299e-014 -3.18055e-015
lhumerus 51.9332 -9.46508 65.5213
lradius 70.1253
lwrist -23.0906
lhand -14.5363 30.0537
lfingers 7.12502
lthumb 11.6119 59.712
rfemur -20.1656 -13.2416 26.6875
rtibia 2.94149
rfoot 2.28158 -17.4961
rtoes 22.0163
lfemur -78.9829 3.88483 -32.0247
ltibia 101.065
lfoot -21.4542 -18.8017
ltoes -20.1802
543
root 2.48305 28.9762 -0.0146717 -167.367 -16.3351 173.865
lowerback 16.4971 -1.262 -0.790073
upperback 2.98937 -2.02836 3.10025
thorax -5.90521 -1.13478 4.20092
lowerneck -20.487 1.68376 -11.0948
upperneck 37.4405 4.28425 -0.637878
head 16.8773 -0.915839 2.20338
rclavicle 1.11319e-014 3.65764e-014
rhumerus 8.50439 19.8684 -84.4655
rradius 88.1849
rwrist 52.6623
rhand -12.4429 -2.47707
rfingers 7.12502
rthumb 13.6301 -32.0108
lclavicle 1.11319e-014 3.65764e-014
lhumerus 52.1835 -9.48917 65.8038
lradius 69.5538
lwrist -23.2857
lhand -13.0713 30.1465
lfingers 7.12502
lthumb 13.0244 59.7199
rfemur -20.6469 -13.1947 26.7551
rtibia 3.82769
rfoot 1.96225 -17.3927
rtoes 22.9885
lfemur -79.0508 3.63795 -32.0849
ltibia 100.298
lfoot -20.7553 -18.9612
ltoes -19.3646
544
root 2.47637 28.9689 -0.0146611 -167.301 -16.0921 173.873
lowerback 16.5441 -1.18548 -0.837475
upperback 2.91993 -1.92783 3.03187
thorax -6.01351 -1.07825 4.1379
lowerneck -20.2633 1.72102 -11.0312
upperneck 37.5022 4.19655 -0.503599
head 16.8519 -0.930103 2.23168
rclavicle -2.54444e-014 -1.59028e-014
rhumerus 8.33479 19.8078 -84.5675
rradius 88.3051
rwrist 52.6367
rhand -12.4093 -2.46474
rfingers 7.12502
rthumb 13.6626 -31.9963
lclavicle -2.54444e-014 -1.59028e-014
lhumerus 52.3354 -9.63273 65.8965
lradius 68.9884
lwrist -22.9258
lhand -11.914 30.8104
lfingers 7.12502
lthumb 14.1399 60.3092
rfemur -21.0346 -13.0759 26.7752
rtibia 4.45924
rfoot 1.59538 -17.286
rtoes 23.2006
lfemur -79.1255 3.46553 -32.1547
ltibia 99.633
lfoot -20.4518 -18.9891
ltoes -18.9065
545
root 2.46745 28.959 -0.0142422 -167.245 -15.8655 173.906
lowerback 16.626 -1.15579 -0.832027
upperback 2.89483 -1.88662 3.00786
thorax -6.08898 -1.0561 4.10494
lowerneck -20.2231 1.75459 -11.1155
upperneck 37.5827 4.21191 -0.394613
head 16.8751 -0.930457 2.2961
rclavicle -7.15625e-015 2.22639e-014
rhumerus 8.2607 19.9194 -84.6099
rradius 88.4241
rwrist 52.7508
rhand -12.5231 -2.46074
rfingers 7.12502
rthumb 13.5529 -31.9997
lclavicle -7.15625e-015 2.22639e-014
lhumerus 52.4812 -9.58372 65.9529
lradius 68.5318
lwrist -22.424
lhand -12.7972 31.9271
lfingers 7.12502
lthumb 13.2886 61.4834
rfemur -21.3874 -12.9734 26.8087
rtibia 5.01668
rfoot 1.32286 -17.1422
rtoes 23.2448
lfemur -79.1768 3.27064 -32.1813
ltibia 99.0452
lfoot -20.3375 -18.9331
ltoes -18.5448
546
root 2.4616 28.9532 -0.0134121 -167.183 -15.6291 173.944
lowerback 16.6962 -1.13456 -0.919914
upperback 2.87819 -1.87294 3.01223
thorax -6.14317 -1.04643 4.16077
lowerneck -20.0641 1.82325 -11.0746
upperneck 37.5278 4.29549 -0.496931
head 16.8063 -0.90473 2.25504
rclavicle 2.38542e-015 4.29375e-014
rhumerus 8.29356 20.1053 -84.6471
rradius 88.4486
rwrist 52.896
rhand -12.6206 -2.52088
rfingers 7.12502
rthumb 13.4589 -32.066
lclavicle 2.38542e-015 4.29375e-014
lhumerus 52.416 -9.46053 66.2373
lradius 68.1758
lwrist -22.8803
lhand -13.9112 31.5679
lfingers 7.12502
lthumb 12.2148 61.1913
rfemur -21.7539 -12.8545 26.8582
rtibia 5.58475
rfoot 1.09342 -16.8853
rtoes 23.4843
lfemur -79.1843 3.09719 -32.2008
ltibia 98.4365
lfoot -20.1892 -18.9487
ltoes -17.929
547
root 2.45571 28.9456 -0.0120716 -167.187 -15.4356 174.028
lowerback 16.8099 -1.12975 -0.943377
upperback 2.92725 -1.87924 3.03485
thorax -6.15045 -1.05327 4.20371
lowerneck -20.0951 1.84783 -11.1004
upperneck 37.4412 4.39081 -0.584432
head 16.7666 -0.874394 2.2388
rclavicle -1.51076e-014 2.8625e-014
rhumerus 8.54511 20.3273 -84.5763
rradius 88.4297
rwrist 52.8667
rhand -12.7126 -2.48843
rfingers 7.12502
rthumb 13.3702 -32.0394
lclavicle -1.51076e-014 2.8625e-014
lhumerus 52.2928 -9.21221 66.6661
lradius 68.0459
lwrist -24.4518
lhand -14.834 30.4627
lfingers 7.12502
lthumb 11.3248 60.1369
rfemur -22.0467 -12.775 26.9523
rtibia 6.07793
rfoot 0.703505 -16.5644
rtoes 23.0376
lfemur -79.115 2.94076 -32.1823
ltibia 97.8241
lfoot -20.0822 -18.8718
ltoes -17.2519
548
root 2.44636 28.9375 -0.0134178 -167.171 -15.2975 174.185
lowerback 16.8091 -1.09424 -0.827274
upperback 2.92692 -1.81284 3.02307
thorax -6.15926 -1.02326 4.11051
lowerneck -19.9719 1.81544 -11.0562
upperneck 37.4886 4.26022 -0.538091
head 16.7676 -0.921254 2.2245
rclavicle -2.46493e-014 4.45278e-014
rhumerus 8.56125 20.2977 -84.5739
rradius 88.519
rwrist 52.8379
rhand -12.7349 -2.50045
rfingers 7.12502
rthumb 13.3487 -32.0529
lclavicle -2.46493e-014 4.45278e-014
lhumerus 52.2233 -9.153 67.0864
lradius 68.1039
lwrist -25.8744
lhand -14.9631 29.4415
lfingers 7.12502
lthumb 11.2003 59.1226
rfemur -22.3184 -12.7329 27.1197
rtibia 6.45965
rfoot 0.436437 -16.3108
rtoes 22.3754
lfemur -79.0761 2.74939 -32.0975
ltibia 97.2248
lfoot -20.0665 -18.6251
ltoes -16.7883
549
root 2.43479 28.9352 -0.0166427 -167.084 -15.1274 174.252
lowerback 16.7214 -1.10292 -0.815778
upperback 2.93029 -1.82224 3.02342
thorax -6.10764 -1.02875 4.10221
lowerneck -20.0299 1.85703 -11.1216
upperneck 37.6725 4.28804 -0.432078
head 16.8694 -0.926669 2.28756
rclavicle -4.77083e-015 0
rhumerus 8.58233 20.4437 -84.5568
rradius 88.6332
rwrist 52.7687
rhand -12.6221 -2.58183
rfingers 7.12502
rthumb 13.4575 -32.1271
lclavicle -4.77083e-015 0
lhumerus 52.1271 -8.95517 67.5208
lradius 68.3094
lwrist -26.4453
lhand -14.6023 29.1149
lfingers 7.12502
lthumb 11.5483 58.7767
rfemur -22.6391 -12.6792 27.191
rtibia 6.90698
rfoot 0.470485 -16.1901
rtoes 22.9248
lfemur -79.0227 2.56863 -32.1277
ltibia 96.5898
lfoot -20.0425 -18.3402
ltoes -16.4868
550
root 2.42432 28.9355 -0.0220263 -167.006 -14.9375 174.311
lowerback 16.6014 -1.14154 -0.883985
upperback 2.97066 -1.88877 3.06747
thorax -5.99074 -1.06417 4.19586
lowerneck -20.0046 1.91342 -11.2544
upperneck 37.5925 4.42633 -0.445245
head 16.8093 -0.885954 2.32896
rclavicle -2.38542e-015 9.54166e-015
rhumerus 8.67698 20.7569 -84.5288
rradius 88.7363
rwrist 52.7713
rhand -12.584 -2.58262
rfingers 7.12502
rthumb 13.4942 -32.1254
lclavicle -2.38542e-015 9.54166e-015
lhumerus 51.9875 -8.62861 68.0786
lradius 68.6115
lwrist -26.6289
lhand -14.1071 29.1637
lfingers 7.12502
lthumb 12.0259 58.7982
rfemur -22.956 -12.6083 27.2493
rtibia 7.3849
rfoot 0.502282 -16.0551
rtoes 23.1516
lfemur -78.9281 2.42687 -32.1833
ltibia 95.9384
lfoot -20.0957 -17.982
ltoes -16.4459
551
root 2.41438 28.9327 -0.0272251 -166.936 -14.6982 174.304
lowerback 16.4703 -1.00239 -0.932406
upperback 3.05018 -1.7228 2.95025
thorax -5.84962 -0.986367 4.05429
lowerneck -19.7982 1.8087 -10.9109
upperneck 37.4033 4.1937 -0.675098
head 16.6937 -0.942678 2.12254
rclavicle -9.54166e-015 3.18055e-015
rhumerus 8.79859 20.4593 -84.5527
rradius 88.7934
rwrist 52.7989
rhand -12.5951 -2.58602
rfingers 7.12502
rthumb 13.4835 -32.1296
lclavicle -9.54166e-015 3.18055e-015
lhumerus 52.1299 -8.83623 68.4528
lradius 69.031
lwrist -26.7473
lhand -13.488 29.4331
lfingers 7.12502
lthumb 12.6228 59.0317
rfemur -23.2414 -12.5103 27.2198
rtibia 7.80163
rfoot 0.406043 -15.8771
rtoes 22.7244
lfemur -78.7972 2.31113 -32.3071
ltibia 95.2966
lfoot -20.1739 -17.5045
ltoes -16.1674
552
root 2.40316 28.9286 -0.0292891 -166.839 -14.4325 174.274
lowerback 16.4274 -1.01001 -1.10444
upperback 3.14174 -1.77319 3.00228
thorax -5.71823 -1.01616 4.21435
lowerneck -20.039 1.82058 -11.0802
upperneck 37.4212 4.3662 -0.78966
head 16.7566 -0.919505 2.1352
rclavicle -1.90833e-014 -2.8625e-014
rhumerus 9.132 20.8129 -84.3932
rradius 88.8306
rwrist 52.7768
rhand -12.6273 -2.49991
rfingers 7.12502
rthumb 13.4524 -32.0455
lclavicle -1.90833e-014 -2.8625e-014
lhumerus 52.0265 -8.40271 68.8976
lradius 69.5934
lwrist -26.8688
lhand -12.9768 29.9194
lfingers 7.12502
lthumb 13.1155 59.4869
rfemur -23.5864 -12.3947 27.1539
rtibia 8.2617
rfoot 0.225566 -15.7656
rtoes 22.5615
lfemur -78.6794 2.19262 -32.4456
ltibia 94.6601
lfoot -20.1448 -16.9976
ltoes -15.7569
